<svg width="850" height="75" viewBox="0 0 850 75" fill="none" xmlns="http://www.w3.org/2000/svg">
<g clip-path="url(#clip0_278_2)">
<path d="M529.536 1.0943H535.051L547.212 35.0085H542.743L539.373 25.3612H525.215L521.844 35.0085H517.375L529.536 1.0943ZM537.988 21.345L532.283 4.67484L526.578 21.345H537.978H537.988Z" fill="#0E3B65"/>
<path d="M554.545 27.9324C555.348 29.0799 556.415 29.9724 557.725 30.6098C559.035 31.2473 560.567 31.5661 562.31 31.5661C563.768 31.5661 565.036 31.3748 566.114 30.9923C567.192 30.6098 568.026 30.0361 568.629 29.2711C569.231 28.5061 569.527 27.5712 569.527 26.4556C569.527 24.7344 568.755 23.3106 567.223 22.1844C565.691 21.0582 563.23 20.0595 559.838 19.1989C556.7 18.402 554.164 17.2439 552.241 15.714C550.308 14.184 549.346 12.1653 549.346 9.64724C549.346 7.76666 549.811 6.13045 550.752 4.72799C551.681 3.32552 552.981 2.2418 554.65 1.47682C556.309 0.711836 558.221 0.329346 560.377 0.329346C562.722 0.329346 564.814 0.786209 566.674 1.71056C568.523 2.63491 570.002 3.90988 571.09 5.53547C572.179 7.16105 572.855 9.02038 573.108 11.1241L568.829 11.4109C568.639 10.0085 568.164 8.77601 567.403 7.71354C566.642 6.65106 565.649 5.82233 564.434 5.22735C563.219 4.64299 561.845 4.3455 560.324 4.3455C558.359 4.3455 556.753 4.83423 555.506 5.80108C554.259 6.76794 553.625 8.05353 553.625 9.64724C553.625 10.8585 554.016 11.8572 554.809 12.654C555.601 13.4509 556.573 14.0671 557.735 14.5134C558.887 14.9596 560.377 15.4165 562.173 15.8946C562.268 15.9265 562.469 15.9902 562.786 16.0858C566.146 17.0421 568.819 18.3276 570.816 19.9532C572.813 21.5788 573.806 23.5975 573.806 26.02C573.806 28.028 573.256 29.7492 572.168 31.2048C571.08 32.6498 569.622 33.7441 567.826 34.4772C566.029 35.2104 564.075 35.5716 561.983 35.5716C559.542 35.5716 557.355 35.1041 555.4 34.1585C553.456 33.2235 551.882 31.8848 550.699 30.1424C549.515 28.4105 548.818 26.4131 548.628 24.15L552.907 23.8631C553.192 25.425 553.742 26.7743 554.545 27.9218V27.9324Z" fill="#0E3B65"/>
<path d="M584.382 27.9324C585.185 29.0799 586.252 29.9724 587.562 30.6098C588.872 31.2473 590.404 31.5661 592.147 31.5661C593.605 31.5661 594.873 31.3748 595.951 30.9923C597.029 30.6098 597.863 30.0361 598.465 29.2711C599.068 28.5061 599.364 27.5712 599.364 26.4556C599.364 24.7344 598.592 23.3106 597.06 22.1844C595.528 21.0582 593.066 20.0595 589.675 19.1989C586.537 18.402 584.001 17.2439 582.078 15.714C580.145 14.184 579.183 12.1653 579.183 9.64724C579.183 7.76666 579.648 6.13045 580.589 4.72799C581.518 3.32552 582.818 2.2418 584.487 1.47682C586.146 0.711836 588.058 0.329346 590.214 0.329346C592.559 0.329346 594.651 0.786209 596.511 1.71056C598.36 2.63491 599.839 3.90988 600.927 5.53547C602.016 7.16105 602.692 9.02038 602.945 11.1241L598.666 11.4109C598.476 10.0085 598.001 8.77601 597.24 7.71354C596.479 6.65106 595.486 5.82233 594.271 5.22735C593.056 4.64299 591.682 4.3455 590.161 4.3455C588.196 4.3455 586.59 4.83423 585.343 5.80108C584.096 6.76794 583.462 8.05353 583.462 9.64724C583.462 10.8585 583.853 11.8572 584.646 12.654C585.438 13.4509 586.41 14.0671 587.572 14.5134C588.724 14.9596 590.214 15.4165 592.01 15.8946C592.105 15.9265 592.306 15.9902 592.623 16.0858C595.983 17.0421 598.656 18.3276 600.653 19.9532C602.649 21.5788 603.643 23.5975 603.643 26.02C603.643 28.028 603.093 29.7492 602.005 31.2048C600.917 32.6498 599.459 33.7441 597.662 34.4772C595.866 35.2104 593.912 35.5716 591.82 35.5716C589.379 35.5716 587.192 35.1041 585.237 34.1585C583.293 33.2235 581.719 31.8848 580.536 30.1424C579.352 28.4105 578.655 26.4131 578.465 24.15L582.744 23.8631C583.029 25.425 583.579 26.7743 584.382 27.9218V27.9324Z" fill="#0E3B65"/>
<path d="M630.575 1.0943V5.11045H613.469V16.0539H630.004V19.9745H613.469V31.0136H630.955V35.0297H609.391V1.0943H630.575Z" fill="#0E3B65"/>
<path d="M658.986 5.09982H648.484V35.0085H644.395V5.09982H633.893V1.0943H658.975V5.11045L658.986 5.09982Z" fill="#0E3B65"/>
<path d="M666.983 27.9324C667.786 29.0799 668.853 29.9724 670.163 30.6098C671.473 31.2473 673.006 31.5661 674.749 31.5661C676.207 31.5661 677.475 31.3748 678.552 30.9923C679.63 30.6098 680.465 30.0361 681.067 29.2711C681.669 28.5061 681.965 27.5712 681.965 26.4556C681.965 24.7344 681.194 23.3106 679.662 22.1844C678.13 21.0582 675.668 20.0595 672.276 19.1989C669.138 18.402 666.603 17.2439 664.68 15.714C662.746 14.184 661.785 12.1653 661.785 9.64724C661.785 7.76666 662.25 6.13045 663.19 4.72799C664.12 3.32552 665.419 2.2418 667.089 1.47682C668.748 0.711836 670.66 0.329346 672.815 0.329346C675.161 0.329346 677.253 0.786209 679.112 1.71056C680.961 2.63491 682.441 3.90988 683.529 5.53547C684.617 7.16105 685.293 9.02038 685.547 11.1241L681.268 11.4109C681.078 10.0085 680.602 8.77601 679.841 7.71354C679.081 6.65106 678.088 5.82233 676.873 5.22735C675.657 4.64299 674.284 4.3455 672.762 4.3455C670.797 4.3455 669.191 4.83423 667.945 5.80108C666.698 6.76794 666.064 8.05353 666.064 9.64724C666.064 10.8585 666.455 11.8572 667.247 12.654C668.04 13.4509 669.012 14.0671 670.174 14.5134C671.326 14.9596 672.815 15.4165 674.611 15.8946C674.707 15.9265 674.907 15.9902 675.224 16.0858C678.584 17.0421 681.257 18.3276 683.254 19.9532C685.251 21.5788 686.244 23.5975 686.244 26.02C686.244 28.028 685.695 29.7492 684.607 31.2048C683.518 32.6498 682.06 33.7441 680.264 34.4772C678.468 35.2104 676.513 35.5716 674.421 35.5716C671.981 35.5716 669.794 35.1041 667.839 34.1585C665.895 33.2235 664.321 31.8848 663.137 30.1424C661.954 28.4105 661.257 26.4131 661.066 24.15L665.345 23.8631C665.631 25.425 666.18 26.7743 666.983 27.9218V27.9324Z" fill="#0E3B65"/>
<path d="M715.627 29.8449C714.603 31.7573 713.123 33.2235 711.211 34.2435C709.299 35.2635 707.059 35.7735 704.491 35.7735C701.924 35.7735 699.642 35.2635 697.719 34.2435C695.806 33.2235 694.327 31.7573 693.302 29.8449C692.278 27.9324 691.76 25.7012 691.76 23.1619V1.0412H695.849V23.1619C695.849 25.9031 696.599 28.0174 698.11 29.5155C699.61 31.0136 701.744 31.7573 704.502 31.7573C707.259 31.7573 709.341 31.0136 710.841 29.5155C712.341 28.0174 713.102 25.9031 713.102 23.1619V1.0412H717.191V23.1619C717.191 25.7118 716.673 27.943 715.649 29.8449H715.627Z" fill="#0E3B65"/>
<path d="M739.263 1.0943V35.0085H735.174V1.0943H739.263Z" fill="#0E3B65"/>
<path d="M752.754 1.0943L769.29 30.1423V1.0943H773.378V35.0085H767.441L751.148 6.43854V35.0085H747.06V1.0943H752.765H752.754Z" fill="#0E3B65"/>
<path d="M802.899 5.51419C805.699 8.45724 807.104 12.654 807.104 18.1045C807.104 23.555 805.731 27.688 802.973 30.6204C800.216 33.5529 796.296 35.0191 791.193 35.0191H780.458V1.0943H790.907C796.106 1.0943 800.099 2.57114 802.899 5.51419ZM799.835 27.773C801.832 25.6268 802.825 22.3969 802.825 18.1045C802.825 13.8121 801.832 10.5291 799.835 8.36162C797.838 6.19417 794.859 5.11045 790.907 5.11045H784.547V31.0029H790.907C794.869 31.0029 797.838 29.9298 799.835 27.7836V27.773Z" fill="#0E3B65"/>
<path d="M815.747 1.0943V35.0085H811.658V1.0943H815.747Z" fill="#0E3B65"/>
<path d="M832.324 1.0943H837.839L850 35.0085H845.531L842.161 25.3612H828.003L824.632 35.0085H820.163L832.324 1.0943ZM840.777 21.345L835.071 4.67484L829.366 21.345H840.766H840.777Z" fill="#0E3B65"/>
<path d="M536.287 41.7339C538.073 42.5414 539.446 43.7208 540.397 45.272C541.348 46.8126 541.824 48.6613 541.824 50.7862C541.824 52.9111 541.348 54.8236 540.397 56.3961C539.446 57.9685 538.073 59.1797 536.287 59.9978C534.502 60.8266 532.367 61.2409 529.895 61.2409H521.865V74.4262H517.776V40.5121H529.895C532.367 40.5121 534.491 40.9158 536.287 41.7339ZM535.622 55.6098C536.9 54.5261 537.545 52.9218 537.545 50.7862C537.545 48.6506 536.9 47.1525 535.622 46.1007C534.343 45.0488 532.431 44.5282 529.895 44.5282H521.865V57.2354H529.895C532.431 57.2354 534.333 56.6936 535.622 55.6098Z" fill="#0E3B65"/>
<path d="M548.807 40.5121L559.256 69.847L569.611 40.5121H574.122L561.908 74.4262H556.541L544.338 40.5121H548.807Z" fill="#0E3B65"/>
<path d="M600.442 44.5282H589.94V74.4369H585.851V44.5282H575.349V40.5121H600.431V44.5282H600.442Z" fill="#0E3B65"/>
<path d="M603.252 69.2202V74.4263H598.17V69.2202H603.252Z" fill="#0E3B65"/>
<path d="M619.829 40.5121H623.918V72.5138L621.879 70.4101H640.781V74.4262H619.829V40.5121Z" fill="#0E3B65"/>
<path d="M663.582 44.5282H653.079V74.4369H648.99V44.5282H638.488V40.5121H663.571V44.5282H663.582Z" fill="#0E3B65"/>
<path d="M690.629 44.932C693.429 47.875 694.834 52.0718 694.834 57.5223C694.834 62.9728 693.46 67.1058 690.703 70.0382C687.945 72.9706 684.025 74.4369 678.922 74.4369H668.188V40.5227H678.637C683.835 40.5227 687.829 41.9995 690.629 44.9426V44.932ZM687.565 67.1908C689.562 65.0446 690.555 61.8147 690.555 57.5223C690.555 53.2299 689.562 49.9468 687.565 47.7794C685.568 45.612 682.588 44.5282 678.637 44.5282H672.276V70.4207H678.637C682.599 70.4207 685.568 69.3476 687.565 67.2014V67.1908Z" fill="#0E3B65"/>
<path d="M702.579 69.2202V74.4263H697.497V69.2202H702.579Z" fill="#0E3B65"/>
<path d="M725.855 72.6413C723.161 71.0689 721.037 68.9227 719.463 66.2133C717.899 63.504 717.106 60.561 717.106 57.3736C717.106 54.1861 717.888 51.2431 719.463 48.5338C721.026 45.8245 723.161 43.6889 725.855 42.1058C728.549 40.5334 731.476 39.7365 734.645 39.7365C737.815 39.7365 740.742 40.5227 743.436 42.1058C746.13 43.6783 748.254 45.8245 749.828 48.5338C751.392 51.2431 752.184 54.1861 752.184 57.3736C752.184 60.561 751.402 63.504 749.828 66.2133C748.264 68.9227 746.13 71.0582 743.436 72.6413C740.742 74.2138 737.815 75.0106 734.645 75.0106C731.476 75.0106 728.549 74.2244 725.855 72.6413ZM741.671 69.6558C743.827 68.3808 745.538 66.6596 746.806 64.4709C748.074 62.2928 748.708 59.9235 748.708 57.3736C748.708 54.8236 748.074 52.4649 746.806 50.2762C745.538 48.0982 743.827 46.3663 741.671 45.0914C739.516 43.8164 737.171 43.1789 734.645 43.1789C732.12 43.1789 729.764 43.8164 727.619 45.0914C725.464 46.3663 723.752 48.0982 722.484 50.2762C721.216 52.4543 720.583 54.8236 720.583 57.3736C720.583 59.9235 721.216 62.2822 722.484 64.4709C723.752 66.649 725.464 68.3808 727.619 69.6558C729.775 70.9307 732.12 71.5682 734.645 71.5682C737.171 71.5682 739.527 70.9307 741.671 69.6558ZM729.701 48.5125C728.243 49.32 727.123 50.4887 726.351 51.9975C725.58 53.5062 725.189 55.3017 725.189 57.3736C725.189 59.4454 725.58 61.2516 726.351 62.7922C727.123 64.3328 728.243 65.5121 729.701 66.3302C731.159 67.1377 732.87 67.5521 734.836 67.5521C736.515 67.5521 737.995 67.244 739.273 66.6171C740.551 65.9902 741.576 65.1084 742.337 63.9397C743.098 62.7816 743.552 61.4003 743.711 59.8066L740.192 59.5198C740.002 61.0179 739.432 62.1866 738.481 63.0259C737.53 63.8653 736.315 64.2903 734.825 64.2903C733.557 64.2903 732.469 64.0247 731.55 63.4828C730.63 62.9409 729.923 62.1547 729.437 61.1135C728.94 60.0829 728.697 58.8292 728.697 57.3629C728.697 55.8967 728.94 54.7068 729.437 53.6868C729.923 52.6668 730.63 51.8912 731.55 51.3493C732.469 50.8075 733.557 50.5419 734.825 50.5419C736.22 50.5419 737.382 50.935 738.312 51.7106C739.241 52.4862 739.812 53.5487 740.002 54.8874L743.52 54.6536C743.394 53.1555 742.95 51.8487 742.189 50.7331C741.428 49.6175 740.425 48.7675 739.167 48.1725C737.921 47.5882 736.463 47.2907 734.825 47.2907C732.86 47.2907 731.148 47.6944 729.69 48.5125H729.701Z" fill="#0E3B65"/>
<path d="M147.221 10.391V69.8258C147.221 72.1207 144.083 73.9907 140.237 73.9907H113.295C109.459 73.9907 106.311 72.1101 106.311 69.8258V59.3391H40.8887V69.8258C40.8887 72.1207 37.7508 73.9907 33.9049 73.9907H6.98384C3.14854 73.9907 0 72.1101 0 69.8258V29.2924C0 27.1568 1.9335 24.2032 4.41641 22.5138C4.60659 22.3863 4.76507 22.2907 4.92355 22.1951L27.7663 8.55291C27.9248 8.44667 28.115 8.36167 28.3052 8.2448C31.1473 6.74671 36.0709 5.60986 39.6843 5.60986H139.191C143.618 5.60986 147.21 7.75606 147.21 10.4016L147.221 10.391ZM106.321 25.1275H57.9099L53.5146 27.7837C53.3244 27.8793 53.1448 27.9962 52.9758 28.0918L40.8993 35.306V39.8109H106.321V25.1381V25.1275Z" fill="#0E3B65"/>
<path d="M197.883 9.76414V69.8151C197.883 72.1101 194.745 73.98 190.899 73.98H163.956C160.121 73.98 156.973 72.0995 156.973 69.8151V9.76414C156.973 7.4692 160.111 5.59924 163.956 5.59924H190.899C194.734 5.59924 197.883 7.47982 197.883 9.76414Z" fill="#0E3B65"/>
<path d="M503.047 58.6167V69.8151C503.047 72.1101 499.909 73.98 496.064 73.98H370.967C367.132 73.98 363.983 72.0995 363.983 69.8151V9.77476C363.983 7.47982 367.121 5.60986 370.967 5.60986H397.909C401.745 5.60986 404.893 7.49044 404.893 9.77476V54.4412H496.074C499.909 54.4412 503.058 56.3217 503.058 58.606L503.047 58.6167Z" fill="#0E3B65"/>
<path d="M351.95 22.5138C351.76 22.3863 351.591 22.2907 351.443 22.1951L328.589 8.55292C328.431 8.43605 328.241 8.35105 328.061 8.2448C325.219 6.74671 320.285 5.59924 316.682 5.59924H217.165C212.738 5.59924 209.146 7.74544 209.146 10.391V69.8258C209.146 72.1207 212.294 73.9907 216.119 73.9907H243.061C246.896 73.9907 250.045 72.1207 250.045 69.8258V59.3391H356.366V29.2924C356.366 27.1568 354.433 24.2138 351.95 22.5138ZM315.456 39.7896H250.034V25.1169H298.446L302.841 27.7731C303.021 27.8687 303.211 27.9749 303.369 28.0812L315.446 35.2847V39.7896H315.456Z" fill="#0E3B65"/>
<path d="M478.895 14.779C478.895 6.32172 484.515 0 493.401 0C502.287 0 507.865 6.32172 507.865 14.779C507.865 23.2363 502.287 29.5261 493.401 29.5261C484.515 29.5261 478.895 23.2363 478.895 14.779ZM505.89 14.779C505.89 7.50106 501.051 1.57246 493.39 1.57246C485.73 1.57246 480.849 7.50106 480.849 14.779C480.849 22.057 485.688 27.9431 493.39 27.9431C501.093 27.9431 505.89 22.0145 505.89 14.779ZM493.433 8.65916C489.302 8.65916 488.203 11.6235 488.203 14.7896C488.203 17.9558 489.302 20.8776 493.433 20.8776C497.088 20.8776 497.997 18.3489 498.145 17.2439H500.892C500.66 20.7607 497.987 23.6507 493.623 23.6507C488.361 23.6507 485.445 20.017 485.445 14.8003C485.445 9.58351 488.192 5.90735 493.306 5.90735C497.743 5.90735 500.501 8.79728 500.892 12.2716H498.145C497.987 11.326 497.088 8.66978 493.433 8.66978V8.65916Z" fill="#0E3B65"/>
</g>
<defs>
<clipPath id="clip0_278_2">
<rect width="850" height="75" fill="white"/>
</clipPath>
</defs>
</svg>
